<mxfile host="65bd71144e">
    <diagram id="3S-U1pOjOZ-6KoSvqvYC" name="Page-1">
        <mxGraphModel dx="1030" dy="556" grid="1" gridSize="10" guides="1" tooltips="1" connect="1" arrows="1" fold="1" page="1" pageScale="1" pageWidth="1169" pageHeight="1654" math="0" shadow="0">
            <root>
                <mxCell id="0"/>
                <mxCell id="1" parent="0"/>
                <mxCell id="5" value="Scheduler" style="shape=umlLifeline;perimeter=lifelinePerimeter;whiteSpace=wrap;html=1;container=1;collapsible=0;recursiveResize=0;outlineConnect=0;" vertex="1" parent="1">
                    <mxGeometry x="491" y="60" width="100" height="420" as="geometry"/>
                </mxCell>
                <mxCell id="20" value="" style="html=1;points=[];perimeter=orthogonalPerimeter;" vertex="1" parent="5">
                    <mxGeometry x="45" y="125" width="10" height="75" as="geometry"/>
                </mxCell>
                <mxCell id="47" value="Starts check&lt;br&gt;for films" style="edgeStyle=orthogonalEdgeStyle;html=1;align=left;spacingLeft=2;endArrow=block;rounded=0;" edge="1" parent="5">
                    <mxGeometry relative="1" as="geometry">
                        <mxPoint x="47.5" y="90" as="sourcePoint"/>
                        <Array as="points">
                            <mxPoint x="79" y="90"/>
                            <mxPoint x="79" y="130"/>
                        </Array>
                        <mxPoint x="53" y="130" as="targetPoint"/>
                    </mxGeometry>
                </mxCell>
                <mxCell id="6" value="Admin Panel" style="shape=umlLifeline;perimeter=lifelinePerimeter;whiteSpace=wrap;html=1;container=1;collapsible=0;recursiveResize=0;outlineConnect=0;lifelineDashed=0;" vertex="1" parent="1">
                    <mxGeometry x="182" y="60" width="100" height="420" as="geometry"/>
                </mxCell>
                <mxCell id="14" value="" style="html=1;points=[];perimeter=orthogonalPerimeter;" vertex="1" parent="6">
                    <mxGeometry x="45" y="70" width="10" height="30" as="geometry"/>
                </mxCell>
                <mxCell id="7" value="Notifications generator" style="shape=umlLifeline;perimeter=lifelinePerimeter;whiteSpace=wrap;html=1;container=1;collapsible=0;recursiveResize=0;outlineConnect=0;" vertex="1" parent="1">
                    <mxGeometry x="330" y="60" width="100" height="420" as="geometry"/>
                </mxCell>
                <mxCell id="17" value="" style="html=1;points=[];perimeter=orthogonalPerimeter;" vertex="1" parent="7">
                    <mxGeometry x="45" y="95" width="10" height="155" as="geometry"/>
                </mxCell>
                <mxCell id="8" value="Manager" style="shape=umlLifeline;verticalLabelPosition=bottom;verticalAlign=top;html=1;outlineConnect=0;participant=umlActor;fontFamily=Helvetica;fontSize=12;fontColor=default;align=center;strokeColor=default;fillColor=default;recursiveResize=0;container=1;collapsible=0;size=60;" vertex="1" parent="1">
                    <mxGeometry x="76" y="40" width="30" height="430" as="geometry"/>
                </mxCell>
                <mxCell id="15" value="Marks films as published" style="html=1;verticalAlign=bottom;startArrow=oval;endArrow=block;startSize=8;" edge="1" parent="1">
                    <mxGeometry relative="1" as="geometry">
                        <mxPoint x="110" y="137" as="sourcePoint"/>
                        <mxPoint x="231.5" y="137" as="targetPoint"/>
                    </mxGeometry>
                </mxCell>
                <mxCell id="18" value="Informs films are published" style="html=1;verticalAlign=bottom;startArrow=oval;endArrow=block;startSize=8;" edge="1" target="17" parent="1" source="6">
                    <mxGeometry relative="1" as="geometry">
                        <mxPoint x="357" y="155" as="sourcePoint"/>
                        <Array as="points">
                            <mxPoint x="362" y="160"/>
                        </Array>
                    </mxGeometry>
                </mxCell>
                <mxCell id="22" style="edgeStyle=none;html=1;" edge="1" parent="1">
                    <mxGeometry relative="1" as="geometry">
                        <mxPoint x="536" y="195.5" as="sourcePoint"/>
                        <mxPoint x="385" y="195.5" as="targetPoint"/>
                    </mxGeometry>
                </mxCell>
                <mxCell id="23" value="Checks for new films" style="edgeLabel;html=1;align=center;verticalAlign=middle;resizable=0;points=[];" vertex="1" connectable="0" parent="22">
                    <mxGeometry x="-0.3978" relative="1" as="geometry">
                        <mxPoint x="-29" y="-10" as="offset"/>
                    </mxGeometry>
                </mxCell>
                <mxCell id="24" style="edgeStyle=none;html=1;entryX=0.029;entryY=0.402;entryDx=0;entryDy=0;entryPerimeter=0;" edge="1" parent="1" source="17" target="20">
                    <mxGeometry relative="1" as="geometry">
                        <mxPoint x="397" y="213" as="sourcePoint"/>
                        <mxPoint x="510" y="213" as="targetPoint"/>
                        <Array as="points">
                            <mxPoint x="482" y="213"/>
                        </Array>
                    </mxGeometry>
                </mxCell>
                <mxCell id="25" value="Confirms" style="edgeLabel;html=1;align=center;verticalAlign=middle;resizable=0;points=[];" vertex="1" connectable="0" parent="24">
                    <mxGeometry x="-0.0311" y="-4" relative="1" as="geometry">
                        <mxPoint x="1" y="-12" as="offset"/>
                    </mxGeometry>
                </mxCell>
                <mxCell id="26" style="edgeStyle=none;html=1;" edge="1" parent="1" source="20" target="17">
                    <mxGeometry relative="1" as="geometry">
                        <mxPoint x="402" y="240" as="targetPoint"/>
                        <Array as="points">
                            <mxPoint x="482" y="240"/>
                        </Array>
                    </mxGeometry>
                </mxCell>
                <mxCell id="27" value="Create new task" style="edgeLabel;html=1;align=center;verticalAlign=middle;resizable=0;points=[];" vertex="1" connectable="0" parent="26">
                    <mxGeometry x="-0.069" y="-2" relative="1" as="geometry">
                        <mxPoint y="-8" as="offset"/>
                    </mxGeometry>
                </mxCell>
                <mxCell id="28" style="edgeStyle=none;html=1;entryX=0.961;entryY=0.673;entryDx=0;entryDy=0;entryPerimeter=0;" edge="1" parent="1" source="20" target="17">
                    <mxGeometry relative="1" as="geometry">
                        <mxPoint x="510" y="259" as="sourcePoint"/>
                        <mxPoint x="397.5" y="260.5" as="targetPoint"/>
                    </mxGeometry>
                </mxCell>
                <mxCell id="30" value="Passes template to use" style="edgeLabel;html=1;align=center;verticalAlign=middle;resizable=0;points=[];" vertex="1" connectable="0" parent="28">
                    <mxGeometry x="0.2482" y="1" relative="1" as="geometry">
                        <mxPoint x="17" y="-9" as="offset"/>
                    </mxGeometry>
                </mxCell>
                <mxCell id="31" value="API Notification" style="shape=umlLifeline;perimeter=lifelinePerimeter;whiteSpace=wrap;html=1;container=1;collapsible=0;recursiveResize=0;outlineConnect=0;" vertex="1" parent="1">
                    <mxGeometry x="621" y="60" width="100" height="420" as="geometry"/>
                </mxCell>
                <mxCell id="33" value="" style="html=1;points=[];perimeter=orthogonalPerimeter;" vertex="1" parent="31">
                    <mxGeometry x="45" y="230" width="10" height="80" as="geometry"/>
                </mxCell>
                <mxCell id="32" value="Enricher" style="shape=umlLifeline;perimeter=lifelinePerimeter;whiteSpace=wrap;html=1;container=1;collapsible=0;recursiveResize=0;outlineConnect=0;lifelineDashed=0;" vertex="1" parent="1">
                    <mxGeometry x="741" y="60" width="100" height="420" as="geometry"/>
                </mxCell>
                <mxCell id="36" value="" style="html=1;points=[];perimeter=orthogonalPerimeter;" vertex="1" parent="32">
                    <mxGeometry x="45" y="240" width="10" height="80" as="geometry"/>
                </mxCell>
                <mxCell id="34" style="edgeStyle=none;html=1;" edge="1" parent="1" target="33">
                    <mxGeometry relative="1" as="geometry">
                        <mxPoint x="385" y="290" as="sourcePoint"/>
                        <mxPoint x="640" y="304" as="targetPoint"/>
                    </mxGeometry>
                </mxCell>
                <mxCell id="35" value="Creates task to inform users" style="edgeLabel;html=1;align=center;verticalAlign=middle;resizable=0;points=[];" vertex="1" connectable="0" parent="34">
                    <mxGeometry x="0.2951" y="2" relative="1" as="geometry">
                        <mxPoint x="-61" y="-9" as="offset"/>
                    </mxGeometry>
                </mxCell>
                <mxCell id="37" style="edgeStyle=none;html=1;entryX=0.105;entryY=0.115;entryDx=0;entryDy=0;entryPerimeter=0;" edge="1" parent="1" source="33" target="36">
                    <mxGeometry relative="1" as="geometry"/>
                </mxCell>
                <mxCell id="38" value="Passes data to transform" style="edgeLabel;html=1;align=center;verticalAlign=middle;resizable=0;points=[];" vertex="1" connectable="0" parent="37">
                    <mxGeometry x="0.4834" y="-2" relative="1" as="geometry">
                        <mxPoint x="-27" y="-11" as="offset"/>
                    </mxGeometry>
                </mxCell>
                <mxCell id="39" value="Auth" style="shape=umlLifeline;perimeter=lifelinePerimeter;whiteSpace=wrap;html=1;container=1;collapsible=0;recursiveResize=0;outlineConnect=0;" vertex="1" parent="1">
                    <mxGeometry x="870" y="60" width="100" height="420" as="geometry"/>
                </mxCell>
                <mxCell id="41" value="" style="html=1;points=[];perimeter=orthogonalPerimeter;" vertex="1" parent="39">
                    <mxGeometry x="45" y="255" width="10" height="35" as="geometry"/>
                </mxCell>
                <mxCell id="40" value="Sender" style="shape=umlLifeline;perimeter=lifelinePerimeter;whiteSpace=wrap;html=1;container=1;collapsible=0;recursiveResize=0;outlineConnect=0;lifelineDashed=0;" vertex="1" parent="1">
                    <mxGeometry x="990" y="60" width="100" height="420" as="geometry"/>
                </mxCell>
                <mxCell id="50" value="" style="html=1;points=[];perimeter=orthogonalPerimeter;" vertex="1" parent="40">
                    <mxGeometry x="45" y="300" width="10" height="60" as="geometry"/>
                </mxCell>
                <mxCell id="42" style="edgeStyle=none;html=1;entryX=0.5;entryY=0.229;entryDx=0;entryDy=0;entryPerimeter=0;" edge="1" parent="1" target="41">
                    <mxGeometry relative="1" as="geometry">
                        <mxPoint x="796" y="323" as="sourcePoint"/>
                        <mxPoint x="910" y="323" as="targetPoint"/>
                    </mxGeometry>
                </mxCell>
                <mxCell id="44" value="" style="edgeStyle=none;html=1;" edge="1" parent="1" source="41">
                    <mxGeometry relative="1" as="geometry">
                        <mxPoint x="900" y="347" as="sourcePoint"/>
                        <mxPoint x="796" y="347" as="targetPoint"/>
                    </mxGeometry>
                </mxCell>
                <mxCell id="45" value="Fetches user data" style="edgeLabel;html=1;align=center;verticalAlign=middle;resizable=0;points=[];" vertex="1" connectable="0" parent="44">
                    <mxGeometry x="-0.2873" y="1" relative="1" as="geometry">
                        <mxPoint x="-14" y="-13" as="offset"/>
                    </mxGeometry>
                </mxCell>
                <mxCell id="51" style="edgeStyle=none;html=1;" edge="1" parent="1" target="50">
                    <mxGeometry relative="1" as="geometry">
                        <mxPoint x="796" y="368" as="sourcePoint"/>
                        <mxPoint x="990" y="370" as="targetPoint"/>
                    </mxGeometry>
                </mxCell>
                <mxCell id="52" value="Sends notifications" style="edgeLabel;html=1;align=center;verticalAlign=middle;resizable=0;points=[];" vertex="1" connectable="0" parent="51">
                    <mxGeometry x="0.2017" y="-1" relative="1" as="geometry">
                        <mxPoint x="-15" y="-10" as="offset"/>
                    </mxGeometry>
                </mxCell>
            </root>
        </mxGraphModel>
    </diagram>
</mxfile>